<svg xmlns="http://www.w3.org/2000/svg" xmlns:xlink="http://www.w3.org/1999/xlink" width="29.396" height="29.382" viewBox="0 0 29.396 29.382">
  <defs>
    <clipPath id="clip-path">
      <rect id="Rectángulo_23" data-name="Rectángulo 23" width="29.396" height="29.382" fill="none"/>
    </clipPath>
  </defs>
  <g id="Grupo_11" data-name="Grupo 11" clip-path="url(#clip-path)">
    <path id="Trazado_7" data-name="Trazado 7" d="M21.835,29.377a14.179,14.179,0,0,1-3.642-.867,27.7,27.7,0,0,1-8.316-5.049A33.879,33.879,0,0,1,3.4,16.141,21.426,21.426,0,0,1,.165,8.7c-.059-.289-.1-.581-.145-.873A1.9,1.9,0,0,1,.281,6.573a24.906,24.906,0,0,1,3.1-4.159A12.1,12.1,0,0,1,5.6.371,1.746,1.746,0,0,1,8.115.745a33.448,33.448,0,0,1,3.814,6.283c.066.148.11.307.171.458A1.791,1.791,0,0,1,11.609,9.6c-.53.505-1.094.976-1.654,1.45a.416.416,0,0,0-.157.544,13.355,13.355,0,0,0,7.973,7.984.439.439,0,0,0,.574-.154,21.337,21.337,0,0,1,1.518-1.715,1.818,1.818,0,0,1,1.992-.448,15.05,15.05,0,0,1,2.559,1.223,47.226,47.226,0,0,1,3.972,2.577,2.564,2.564,0,0,1,.629.618,1.618,1.618,0,0,1,.034,2.041,11.694,11.694,0,0,1-2.006,2.212,24.216,24.216,0,0,1-4.227,3.157,1.611,1.611,0,0,1-.981.29" transform="translate(0 0)" fill="#707070"/>
  </g>
</svg>
