<svg xmlns="http://www.w3.org/2000/svg" xmlns:xlink="http://www.w3.org/1999/xlink" width="42.626" height="50" viewBox="0 0 42.626 50">
  <defs>
    <clipPath id="clip-path">
      <rect id="Rectángulo_33" data-name="Rectángulo 33" width="50" height="42.626" fill="none"/>
    </clipPath>
  </defs>
  <g id="Grupo_30" data-name="Grupo 30" transform="translate(42.627) rotate(90)">
    <g id="Grupo_29" data-name="Grupo 29" transform="translate(0 0)" clip-path="url(#clip-path)">
      <path id="Trazado_9" data-name="Trazado 9" d="M20.865.038a4.151,4.151,0,0,1,3.164,1.1c.64.611,1.271,1.234,1.881,1.876a3.859,3.859,0,0,1,.136,5.24c-.194.23-.4.448-.613.661Q19.462,14.889,13.489,20.86c-.487.487-.489.495,0,.987,4.028,4.029,8.019,8.1,12.1,12.069A4.031,4.031,0,0,1,25.576,40c-.522.467-.989,1-1.495,1.482a3.838,3.838,0,0,1-5.531-.039Q9.873,32.79,1.215,24.116a3.8,3.8,0,0,1,.023-5.587Q9.864,9.892,18.5,1.266A3.817,3.817,0,0,1,20.865.038" transform="translate(0 -0.016)" fill="#707070"/>
      <path id="Trazado_10" data-name="Trazado 10" d="M60.178,42.618A4.054,4.054,0,0,1,57.152,41.4q-3.184-3.2-6.381-6.381Q45.4,29.648,40.03,24.278a3.874,3.874,0,0,1,0-5.921Q48.5,9.884,56.977,1.414a3.885,3.885,0,0,1,5.995,0c.485.484.973.965,1.453,1.454a3.874,3.874,0,0,1-.007,5.682c-1.173,1.19-2.361,2.365-3.543,3.547l-8.756,8.755c-.466.466-.466.469,0,.937q6.115,6.115,12.23,12.23a3.846,3.846,0,0,1,1.02,4.354A11.2,11.2,0,0,1,61.3,42.383a3.438,3.438,0,0,1-1.121.234M59.963,1.691a2.335,2.335,0,0,0-1.572.68Q49.72,11.039,41.053,19.71a2.161,2.161,0,0,0,0,3.223q8.644,8.659,17.305,17.3a2.179,2.179,0,0,0,3.22.005q.862-.84,1.7-1.7a2.162,2.162,0,0,0,0-3.178c-.686-.708-1.374-1.414-2.072-2.111q-5.484-5.471-10.973-10.937a4.138,4.138,0,0,1-.41-.439.853.853,0,0,1,0-1.11,4.73,4.73,0,0,1,.446-.475c4.312-4.315,8.675-8.579,12.941-12.94a2.187,2.187,0,0,0,.023-3.289c-.559-.575-1.131-1.137-1.7-1.7a2.314,2.314,0,0,0-1.579-.666" transform="translate(-15.662 0)" fill="#707070"/>
    </g>
  </g>
</svg>
