<svg id="Grupo_4" data-name="Grupo 4" xmlns="http://www.w3.org/2000/svg" xmlns:xlink="http://www.w3.org/1999/xlink" width="23.059" height="21.66" viewBox="0 0 23.059 21.66">
  <defs>
    <clipPath id="clip-path">
      <rect id="Rectángulo_10" data-name="Rectángulo 10" width="23.059" height="21.66" fill="none"/>
    </clipPath>
  </defs>
  <g id="Grupo_3" data-name="Grupo 3" clip-path="url(#clip-path)">
    <path id="Trazado_2" data-name="Trazado 2" d="M76.967,66.865a4.915,4.915,0,0,1,3.671-2.216,6.362,6.362,0,0,1,4.663.974,4.563,4.563,0,0,1,1.655,2.771,10.474,10.474,0,0,1,.283,2.457c.01,2.733,0,5.466.012,8.2,0,.263-.08.354-.365.352-1.366-.011-2.732,0-4.1-.005-.37,0-.39-.02-.391-.379-.005-2.575,0-5.15-.018-7.724a3.659,3.659,0,0,0-.392-1.685,1.886,1.886,0,0,0-1.594-1.016,3.083,3.083,0,0,0-2.093.4,2.621,2.621,0,0,0-1.047,1.912,8.387,8.387,0,0,0-.076,1.472q0,3.309,0,6.617c0,.414,0,.414-.427.414-1.357,0-2.713-.006-4.07,0-.268,0-.353-.075-.353-.329q.01-6.92,0-13.841c0-.242.083-.32.338-.318q1.979.013,3.957,0c.276,0,.356.094.349.34-.014.508,0,1.017,0,1.6" transform="translate(-64.193 -57.755)" fill="#707070"/>
    <path id="Trazado_3" data-name="Trazado 3" d="M7.964,75.108q0,3.426,0,6.851c0,.368,0,.37-.384.37-1.365,0-2.731-.007-4.1.006-.284,0-.372-.082-.372-.345q.009-6.9,0-13.808c0-.245.076-.34.352-.337q2.076.016,4.152,0c.269,0,.353.08.352.333-.008,2.31,0,4.62,0,6.931" transform="translate(-2.762 -60.676)" fill="#707070"/>
    <path id="Trazado_4" data-name="Trazado 4" d="M2.788,5.256A2.707,2.707,0,0,1,0,2.62,2.7,2.7,0,0,1,2.8,0,2.725,2.725,0,0,1,5.587,2.622a2.732,2.732,0,0,1-2.8,2.634" transform="translate(0 0)" fill="#707070"/>
  </g>
</svg>
