<svg xmlns="http://www.w3.org/2000/svg" xmlns:xlink="http://www.w3.org/1999/xlink" width="22.431" height="25.438" viewBox="0 0 22.431 25.438">
  <defs>
    <clipPath id="clip-path">
      <rect id="Rectángulo_9" data-name="Rectángulo 9" width="22.431" height="25.438" transform="translate(0 -3)" fill="none"/>
    </clipPath>
  </defs>
  <g id="Grupo_2" data-name="Grupo 2" transform="translate(0 3)">
    <g id="Grupo_1" data-name="Grupo 1" clip-path="url(#clip-path)">
      <path id="Trazado_1" data-name="Trazado 1" d="M11.452,22.435a11.225,11.225,0,0,1-6.089-1.663A.7.7,0,0,0,4.7,20.7c-1.217.4-2.441.786-3.662,1.173-.08.025-.179.1-.244.034s.008-.177.037-.262q.6-1.814,1.215-3.626a.443.443,0,0,0-.059-.444A10.836,10.836,0,0,1,.048,12.256,10.942,10.942,0,0,1,2.767,3.849,10.759,10.759,0,0,1,9.6.121,10.919,10.919,0,0,1,18.623,2.81,10.694,10.694,0,0,1,22.21,9.037a10.913,10.913,0,0,1-2.6,9.6,10.952,10.952,0,0,1-6.788,3.688,8.042,8.042,0,0,1-1.371.113M4.746,8.02a4.993,4.993,0,0,0,.685,2.614,16.625,16.625,0,0,0,1.9,2.638,12.039,12.039,0,0,0,6.013,3.9,3.94,3.94,0,0,0,2.4.15,2.641,2.641,0,0,0,2.189-2.753.448.448,0,0,0-.266-.46c-.845-.411-1.677-.849-2.544-1.215a.615.615,0,0,0-.873.243c-.219.291-.428.589-.653.876a.813.813,0,0,1-1.191.3,8.851,8.851,0,0,1-4.183-3.67c-.251-.406-.237-.552.077-.913.072-.082.152-.158.222-.241a4.3,4.3,0,0,0,.541-.684A.641.641,0,0,0,9.1,8.239c-.085-.217-.176-.432-.266-.647-.273-.652-.55-1.3-.818-1.955a.64.64,0,0,0-.692-.45c-.174.012-.35,0-.524,0a1.458,1.458,0,0,0-1.01.453A3.414,3.414,0,0,0,4.746,8.02" transform="translate(0 0)" fill="#707070"/>
    </g>
  </g>
</svg>
