<svg id="Grupo_6" data-name="Grupo 6" xmlns="http://www.w3.org/2000/svg" xmlns:xlink="http://www.w3.org/1999/xlink" width="22.691" height="17.006" viewBox="0 0 22.691 17.006">
  <defs>
    <clipPath id="clip-path">
      <rect id="Rectángulo_11" data-name="Rectángulo 11" width="22.691" height="17.006" transform="translate(0 0)" fill="none"/>
    </clipPath>
  </defs>
  <g id="Grupo_5" data-name="Grupo 5" clip-path="url(#clip-path)">
    <path id="Trazado_5" data-name="Trazado 5" d="M11.336,29.377q-4.409,0-8.819,0A2.456,2.456,0,0,1,.032,27.3a1.86,1.86,0,0,1-.023-.33q0-5.588,0-11.176c0-.07-.034-.168.036-.2s.146.048.21.09c3.01,2,6.033,3.989,9.023,6.024a3.742,3.742,0,0,0,4.125,0c2.96-2.012,5.952-3.979,8.931-5.963.055-.037.112-.072.166-.11.115-.083.189-.086.18.087,0,.044,0,.088,0,.132,0,3.652-.022,7.3.011,10.955a2.547,2.547,0,0,1-2.58,2.577c-2.925-.026-5.85-.008-8.775-.008" transform="translate(0 -12.379)" fill="#707070"/>
    <path id="Trazado_6" data-name="Trazado 6" d="M11.95,8.692a2.039,2.039,0,0,1-1.26-.377Q5.848,5.083,1,1.858c-.28-.187-.287-.191-.13-.485A2.363,2.363,0,0,1,3.057.007q8.9-.015,17.79,0a2.38,2.38,0,0,1,2.239,1.459.228.228,0,0,1-.1.343q-4.93,3.278-9.856,6.563a1.923,1.923,0,0,1-1.18.319" transform="translate(-0.611 0)" fill="#707070"/>
  </g>
</svg>
